<?xml version="1.0" encoding="utf-8"?>
<!-- Svg Vector Icons : http://www.onlinewebfonts.com/icon -->
<!DOCTYPE svg PUBLIC "-//W3C//DTD SVG 1.1//EN" "http://www.w3.org/Graphics/SVG/1.1/DTD/svg11.dtd">
<svg version="1.1" xmlns="http://www.w3.org/2000/svg" xmlns:xlink="http://www.w3.org/1999/xlink" x="0px" y="0px" viewBox="0 0 1000 1000" enable-background="new 0 0 1000 1000" xml:space="preserve">
<metadata> Svg Vector Icons : http://www.onlinewebfonts.com/icon </metadata>
<g fill='#bf0df0'><path d="M495.3,989.9c-18.7-4.9-33.5-16.2-47.6-28.9c-103.6-93.8-208.4-186.1-316.4-274.8c-2.6-2.2-6.8-3.5-10.2-3.5c-17.4,0.1-34.8,1.1-52.3,1.3c-35.2,0.4-59.2-27.1-58.9-59.1c0.9-82.2,0.3-164.4,0.3-246.6c0-35.3,25.2-61,60.4-61.4c15.8-0.2,31.7-0.2,47.6,0.1c5.1,0.1,8.9-1.4,12.8-4.7c80.3-67.7,160.7-135.4,241.1-203c30.5-25.6,60.9-51.5,91.9-76.4c9.9-8,21.3-14.7,33.1-19.6c18.6-7.9,36-1.1,46.8,16.2c9.3,15,13.2,31.7,14.9,48.9c1.3,13.3,2.1,26.6,2.1,40c0.1,260.2,0.2,520.4-0.1,780.6c0,13-1.7,26.2-4.6,38.9c-5.7,24.8-17.9,44.9-44.6,52C506.2,989.9,500.8,989.9,495.3,989.9z" stroke="red" stroke-width="20" stroke-linecap="butt"/><path d="M990,523.8c-1.7,13.2-2.9,26.5-5.2,39.5C970.9,642.9,934.2,711,877.5,768c-18.1,18.2-38.6,34.2-59.1,49.8c-21.2,16.2-50,10.6-66-11.1c-15.1-20.6-11.5-50.4,9.4-65.5c36.9-26.6,67.8-58.4,91.7-97.1c57.8-93.6,55.9-213-18-306.7c-20.8-26.3-44.4-49.4-71.5-69.2c-27.2-19.8-27.7-56.6-1.7-77.4c15.4-12.3,38-13.7,53.9-2.4C879.7,233.4,929.1,290,960,361.9c15.9,37.1,26.1,75.6,28.8,116c0.1,2.2,0.8,4.4,1.2,6.5C990,497.5,990,510.6,990,523.8z" stroke="red" stroke-width="20" stroke-linecap="butt"/><path d="M808.6,496.1c2.2,58.7-19.3,106.8-55.8,149.1c-12.1,14.1-26.4,17.6-42.6,11.7c-15.2-5.6-26.6-21.2-27.3-37.4c-0.4-10.4,1.5-20.3,7-29.2c5.8-9.4,12.2-18.5,18-28c21.9-35.8,23.1-72.5,3.8-109.7c-5.1-9.8-11.7-18.8-17.5-28.2c-8.5-13.8-14.3-28.3-9.7-45c6.1-22.1,29.6-36.2,50.6-29.3c5.7,1.9,11.6,5.7,15.5,10.3C784.7,399.9,808.6,443.9,808.6,496.1z" stroke="red" stroke-width="20" stroke-linecap="butt"/></g>
</svg>