<svg width="31" height="10" viewBox="0 0 31 10" fill="none" xmlns="http://www.w3.org/2000/svg">
<path d="M6.096 0.599999H7.2V9H6.096V5.22H2.016V9H0.9V0.599999H2.016V4.164H6.096V0.599999ZM13.4537 8.244C12.8377 8.852 12.0897 9.156 11.2097 9.156C10.3297 9.156 9.58166 8.852 8.96566 8.244C8.35766 7.636 8.05366 6.888 8.05366 6C8.05366 5.112 8.35766 4.364 8.96566 3.756C9.58166 3.148 10.3297 2.844 11.2097 2.844C12.0897 2.844 12.8377 3.148 13.4537 3.756C14.0697 4.364 14.3777 5.112 14.3777 6C14.3777 6.888 14.0697 7.636 13.4537 8.244ZM11.2097 8.136C11.8097 8.136 12.3137 7.932 12.7217 7.524C13.1297 7.116 13.3337 6.608 13.3337 6C13.3337 5.392 13.1297 4.884 12.7217 4.476C12.3137 4.068 11.8097 3.864 11.2097 3.864C10.6177 3.864 10.1177 4.068 9.70966 4.476C9.30166 4.884 9.09766 5.392 9.09766 6C9.09766 6.608 9.30166 7.116 9.70966 7.524C10.1177 7.932 10.6177 8.136 11.2097 8.136ZM21.5884 2.844C22.2604 2.844 22.8044 3.064 23.2204 3.504C23.6364 3.936 23.8444 4.524 23.8444 5.268V9H22.8004V5.304C22.8004 4.84 22.6804 4.48 22.4404 4.224C22.2004 3.968 21.8804 3.84 21.4804 3.84C21.0324 3.84 20.6724 3.992 20.4004 4.296C20.1364 4.592 20.0044 5.048 20.0044 5.664V9H18.9604V5.304C18.9604 4.84 18.8444 4.48 18.6124 4.224C18.3884 3.968 18.0804 3.84 17.6884 3.84C17.2484 3.84 16.8804 3.992 16.5844 4.296C16.2964 4.6 16.1524 5.056 16.1524 5.664V9H15.1084V3H16.1524V3.804C16.5604 3.164 17.1564 2.844 17.9404 2.844C18.7484 2.844 19.3364 3.184 19.7044 3.864C20.1204 3.184 20.7484 2.844 21.5884 2.844ZM25.524 6.48C25.628 7.016 25.872 7.432 26.256 7.728C26.648 8.024 27.128 8.172 27.696 8.172C28.488 8.172 29.064 7.88 29.424 7.296L30.312 7.8C29.728 8.704 28.848 9.156 27.672 9.156C26.72 9.156 25.944 8.86 25.344 8.268C24.752 7.668 24.456 6.912 24.456 6C24.456 5.096 24.748 4.344 25.332 3.744C25.916 3.144 26.672 2.844 27.6 2.844C28.48 2.844 29.196 3.156 29.748 3.78C30.308 4.396 30.588 5.14 30.588 6.012C30.588 6.164 30.576 6.32 30.552 6.48H25.524ZM27.6 3.828C27.04 3.828 26.576 3.988 26.208 4.308C25.84 4.62 25.612 5.04 25.524 5.568H29.532C29.444 5 29.22 4.568 28.86 4.272C28.5 3.976 28.08 3.828 27.6 3.828Z" fill="white"/>
</svg>
